<?xml version="1.0" encoding="UTF-8"?><svg id="Laag_2" xmlns="http://www.w3.org/2000/svg" viewBox="0 0 546.74 166.99"><defs><style>.cls-1{fill:#ffe615;}.cls-2{fill:#00005c;}</style></defs><g id="Laag_2-2"><g><g><path class="cls-2" d="M202.46,105.54V17.66h31.89v59.56h26.88v28.33h-58.76Z"/><path class="cls-2" d="M252.26,17.66h36.1l7.51,16.08c.53,1.19,1.58,3.69,2.37,6.98h.92c.66-3.69,1.58-5.01,2.37-6.98l6.85-16.08h35.97l-30.04,50.07v37.81h-31.49v-37.81l-30.57-50.07Z"/><path class="cls-2" d="M352.27,105.54V17.66h30.44l20.42,33.2c3.29,5.27,5.4,8.7,8.3,15.55h.92c-1.32-5.53-2.77-14.36-2.77-20.82V17.66h30.57V105.54h-30.57l-21.87-34.65c-1.98-3.16-4.35-7.77-6.06-11.46h-.92c.92,4.74,1.98,12.25,1.98,16.21v29.91h-30.44Z"/><path class="cls-2" d="M452,17.66h36.1l7.25,13.83c.79,1.58,1.58,4.35,1.98,5.93h.66c.53-2.24,1.19-4.08,2.11-5.93l6.72-13.83h36.1l-27.54,41.11,31.36,46.77h-36.37l-10.67-19.9c-.53-.92-1.05-3.56-1.19-4.22h-.92c-.4,1.45-1.19,3.69-1.84,4.88l-10.41,19.24h-36.37l30.7-46.77-27.67-41.11Z"/></g><g><path class="cls-2" d="M205.26,126.23v20.12h12.6v2.62h-15.4v-22.75h2.8Z"/><path class="cls-2" d="M228.78,149.33c-1.49,0-2.89-.36-4.2-1.08-1.31-.72-2.36-1.77-3.17-3.13-.81-1.37-1.21-2.98-1.21-4.85s.4-3.48,1.21-4.85c.8-1.37,1.86-2.42,3.17-3.17,1.31-.75,2.71-1.12,4.2-1.12s2.89,.37,4.18,1.12c1.29,.75,2.34,1.8,3.13,3.17s1.19,2.98,1.19,4.85-.4,3.48-1.19,4.85c-.79,1.36-1.84,2.41-3.13,3.13-1.29,.72-2.69,1.08-4.18,1.08Zm0-2.62c.98,0,1.9-.24,2.76-.73s1.57-1.22,2.12-2.19c.55-.97,.82-2.14,.82-3.52s-.27-2.55-.82-3.52c-.55-.97-1.25-1.71-2.12-2.22-.86-.51-1.79-.77-2.76-.77s-1.91,.25-2.78,.75c-.88,.5-1.59,1.24-2.15,2.21-.56,.97-.84,2.15-.84,3.55s.27,2.55,.82,3.52c.55,.97,1.26,1.7,2.15,2.19,.89,.49,1.82,.73,2.8,.73Z"/><path class="cls-2" d="M256.4,142.4c-.16,1.45-.62,2.69-1.38,3.73-.76,1.04-1.71,1.83-2.85,2.38-1.14,.55-2.38,.82-3.71,.82-1.49,0-2.89-.36-4.2-1.08-1.31-.72-2.36-1.77-3.17-3.13-.81-1.37-1.21-2.98-1.21-4.85s.4-3.48,1.21-4.85c.8-1.37,1.86-2.42,3.17-3.17,1.31-.75,2.71-1.12,4.2-1.12,1.33,0,2.56,.28,3.69,.84,1.13,.56,2.08,1.35,2.83,2.38,.76,1.03,1.23,2.25,1.42,3.67h-2.56c-.4-1.33-1.08-2.37-2.06-3.13-.98-.76-2.09-1.14-3.33-1.14-1,0-1.95,.26-2.83,.77-.89,.51-1.6,1.25-2.13,2.22-.54,.97-.81,2.14-.81,3.52s.27,2.51,.81,3.48c.54,.97,1.24,1.7,2.12,2.21s1.83,.75,2.85,.75c1.42,0,2.58-.38,3.48-1.14,.9-.76,1.55-1.81,1.94-3.17h2.52Z"/><path class="cls-2" d="M266.58,149.33c-1.38,0-2.64-.39-3.8-1.17-1.16-.78-2.08-1.86-2.77-3.22-.69-1.36-1.03-2.92-1.03-4.67s.35-3.31,1.05-4.69c.7-1.38,1.65-2.46,2.85-3.25,1.2-.79,2.55-1.19,4.04-1.19,1.63,0,2.88,.41,3.73,1.24,.85,.83,1.43,1.93,1.75,3.31,.31,1.38,.47,2.91,.47,4.58,0,.89-.09,1.85-.28,2.89-.19,1.04-.51,2.03-.96,2.97s-1.09,1.71-1.91,2.31c-.82,.6-1.87,.89-3.15,.89Zm.7-2.66c1.19,0,2.18-.29,2.96-.88,.78-.58,1.36-1.36,1.73-2.33,.37-.97,.56-2.04,.56-3.2,0-1.28-.19-2.41-.58-3.38-.38-.97-.97-1.73-1.75-2.27-.78-.55-1.76-.82-2.92-.82-1.75,0-3.1,.61-4.06,1.84-.96,1.22-1.44,2.77-1.44,4.64,0,1.24,.24,2.34,.72,3.31,.48,.97,1.13,1.73,1.96,2.27,.83,.55,1.77,.82,2.82,.82Zm5.25-15.19h2.8v17.5h-2.55c-.07-.84-.13-1.54-.17-2.1-.05-.56-.07-1.03-.07-1.4v-14Z"/><path class="cls-2" d="M280.23,124.48h2.8v24.5h-2.8v-24.5Z"/></g><g><path class="cls-2" d="M325.76,126.23v20.12h12.6v2.62h-15.4v-22.75h2.8Z"/><path class="cls-2" d="M345.85,124.48v3.39h-3.64v-3.39h3.64Zm-3.22,7h2.8v17.5h-2.8v-17.5Z"/><path class="cls-2" d="M350.22,131.48h2.8v17.5h-2.8v-17.5Zm8.82-.35c.93,0,1.77,.14,2.52,.42,.75,.28,1.38,.69,1.89,1.22,.51,.54,.91,1.18,1.19,1.94,.28,.76,.42,1.62,.42,2.57v11.69h-2.8v-10.99c0-1.35-.32-2.37-.95-3.04s-1.58-1.01-2.83-1.01c-.96,0-1.84,.25-2.66,.73-.82,.49-1.49,1.16-2.01,2.01-.52,.85-.85,1.84-.96,2.96l-.04-2.03c.12-.98,.36-1.87,.72-2.66,.36-.79,.82-1.48,1.37-2.05,.55-.57,1.18-1.01,1.89-1.31,.71-.3,1.46-.46,2.26-.46Z"/><path class="cls-2" d="M370.03,124.48h2.8v24.5h-2.8v-24.5Zm14.49,7l-8.75,8.64,.07-1.82,9.28,10.67h-3.57l-8.64-9.76,7.63-7.74h3.99Z"/><path class="cls-2" d="M399.43,143.35h2.62c-.19,1.14-.6,2.16-1.24,3.06-.64,.9-1.48,1.61-2.52,2.13s-2.23,.79-3.59,.79c-1.63,0-3.1-.39-4.41-1.17-1.31-.78-2.34-1.86-3.1-3.22-.76-1.36-1.14-2.92-1.14-4.67s.37-3.31,1.1-4.69c.74-1.38,1.74-2.46,3.03-3.25,1.28-.79,2.73-1.19,4.34-1.19,1.7,0,3.14,.38,4.32,1.14,1.18,.76,2.05,1.87,2.62,3.33,.57,1.46,.8,3.25,.68,5.37h-13.3c.12,1.14,.43,2.15,.95,3.01,.51,.86,1.19,1.53,2.03,2.01s1.8,.72,2.87,.72c1.19,0,2.2-.31,3.03-.93,.83-.62,1.39-1.43,1.7-2.43Zm-4.79-9.59c-1.45,0-2.66,.42-3.64,1.26-.98,.84-1.63,1.98-1.96,3.43h10.26c-.09-1.54-.59-2.71-1.49-3.5-.9-.79-1.95-1.19-3.17-1.19Z"/><path class="cls-2" d="M412.38,149.33c-1.4,0-2.68-.39-3.83-1.17-1.16-.78-2.07-1.86-2.75-3.22-.68-1.36-1.01-2.92-1.01-4.67s.33-3.31,.98-4.69c.65-1.38,1.55-2.46,2.69-3.25,1.14-.79,2.45-1.19,3.92-1.19,1.31,0,2.37,.24,3.2,.72,.83,.48,1.46,1.14,1.91,1.98s.75,1.81,.93,2.91,.26,2.28,.26,3.54c0,.89-.09,1.85-.28,2.89-.19,1.04-.51,2.03-.96,2.97s-1.09,1.71-1.91,2.31c-.82,.6-1.87,.89-3.15,.89Zm.7-2.66c1.19,0,2.18-.29,2.96-.88,.78-.58,1.36-1.36,1.73-2.33,.37-.97,.56-2.04,.56-3.2,0-1.28-.19-2.41-.58-3.38-.38-.97-.97-1.73-1.75-2.27-.78-.55-1.76-.82-2.92-.82-1.75,0-3.1,.61-4.06,1.84-.96,1.22-1.44,2.77-1.44,4.64,0,1.24,.24,2.34,.72,3.31,.48,.97,1.13,1.73,1.96,2.27,.83,.55,1.77,.82,2.82,.82Zm5.25-22.19h2.8v24.5h-2.55c-.05-.51-.1-1.12-.16-1.82-.06-.7-.09-1.26-.09-1.68v-21Z"/></g><g><path class="cls-2" d="M461.06,125.36h18.2v2.62h-18.2v-2.62Zm7.7,2.34h2.8v20.41h-2.8v-20.41Z"/><path class="cls-2" d="M485.53,148.46c-1.38,0-2.64-.39-3.8-1.17-1.16-.78-2.08-1.86-2.77-3.22-.69-1.36-1.03-2.92-1.03-4.67s.35-3.31,1.05-4.69c.7-1.38,1.65-2.46,2.85-3.25,1.2-.79,2.55-1.19,4.04-1.19,1.63,0,2.88,.41,3.73,1.24,.85,.83,1.43,1.93,1.75,3.31,.31,1.38,.47,2.91,.47,4.58,0,.89-.09,1.85-.28,2.89-.19,1.04-.51,2.03-.96,2.97s-1.09,1.71-1.91,2.31c-.82,.6-1.87,.89-3.15,.89Zm.7-2.66c1.19,0,2.18-.29,2.96-.88,.78-.58,1.36-1.36,1.73-2.33,.37-.97,.56-2.04,.56-3.2,0-1.28-.19-2.41-.58-3.38-.38-.97-.97-1.73-1.75-2.27-.78-.55-1.76-.82-2.92-.82-1.75,0-3.1,.61-4.06,1.84-.96,1.22-1.44,2.77-1.44,4.64,0,1.24,.24,2.34,.72,3.31,.48,.97,1.13,1.73,1.96,2.27,.83,.55,1.77,.82,2.82,.82Zm5.25-15.19h2.8v17.5h-2.55c-.07-.84-.13-1.54-.17-2.1-.05-.56-.07-1.03-.07-1.4v-14Z"/><path class="cls-2" d="M497.43,130.61h3.5l5.42,7.53,7.17,9.97h-3.39l-5.67-7.98-7.04-9.52Zm15.75,0l-6.79,9.52-5.57,7.98h-3.39l7.25-10.04,5.11-7.46h3.39Z"/><path class="cls-2" d="M528.54,142.47h2.62c-.19,1.14-.6,2.16-1.24,3.06-.64,.9-1.48,1.61-2.52,2.13s-2.23,.79-3.59,.79c-1.63,0-3.1-.39-4.41-1.17-1.31-.78-2.34-1.86-3.1-3.22-.76-1.36-1.14-2.92-1.14-4.67s.37-3.31,1.1-4.69c.74-1.38,1.74-2.46,3.03-3.25,1.28-.79,2.73-1.19,4.34-1.19,1.7,0,3.14,.38,4.32,1.14,1.18,.76,2.05,1.87,2.62,3.33,.57,1.46,.8,3.25,.68,5.37h-13.3c.12,1.14,.43,2.15,.95,3.01,.51,.86,1.19,1.53,2.03,2.01s1.8,.72,2.87,.72c1.19,0,2.2-.31,3.03-.93,.83-.62,1.39-1.43,1.7-2.43Zm-4.79-9.59c-1.45,0-2.66,.42-3.64,1.26-.98,.84-1.63,1.98-1.96,3.43h10.26c-.09-1.54-.59-2.71-1.49-3.5-.9-.79-1.95-1.19-3.17-1.19Z"/><path class="cls-2" d="M534.03,142.47h2.59c.07,1,.45,1.82,1.14,2.45,.69,.63,1.69,.94,2.99,.94,.79,0,1.42-.1,1.87-.31s.79-.5,1-.86c.21-.36,.31-.76,.31-1.21,0-.54-.13-.96-.4-1.28-.27-.32-.63-.58-1.08-.79s-.97-.41-1.56-.6c-.68-.26-1.37-.53-2.08-.82-.71-.29-1.38-.64-2-1.05-.62-.41-1.12-.91-1.49-1.5-.37-.6-.56-1.31-.56-2.15,0-.7,.14-1.36,.42-1.98s.68-1.16,1.21-1.61c.52-.46,1.14-.81,1.85-1.07s1.5-.38,2.36-.38c1.17,0,2.15,.23,2.96,.7,.8,.47,1.42,1.13,1.85,1.98,.43,.85,.66,1.84,.68,2.96h-2.42c-.16-1.05-.5-1.81-1-2.29-.5-.48-1.22-.72-2.15-.72s-1.69,.21-2.21,.63c-.51,.42-.77,.98-.77,1.68,0,.51,.19,.94,.56,1.28,.37,.34,.86,.64,1.45,.91,.59,.27,1.23,.54,1.91,.82,.68,.28,1.33,.56,1.96,.84,.63,.28,1.19,.61,1.68,.98,.49,.37,.88,.83,1.17,1.38s.44,1.23,.44,2.05c0,.98-.23,1.85-.68,2.61-.45,.76-1.12,1.35-1.99,1.77s-1.94,.63-3.2,.63c-1.14,0-2.12-.15-2.92-.44-.81-.29-1.48-.68-2.01-1.15-.54-.48-.95-.99-1.24-1.52s-.48-1.06-.58-1.58c-.09-.51-.12-.95-.07-1.29Z"/></g><circle class="cls-2" cx="302.99" cy="139.27" r="3.06"/><circle class="cls-2" cx="441.1" cy="139.27" r="3.06"/></g><g><path class="cls-2" d="M160.82,79.69c-1.02-10.55-3.56-20.87-7.75-30.65,4.57,9.32,7.31,19.7,7.75,30.65Z"/><path class="cls-2" d="M24.94,33.14c-1.94,2.29-3.75,4.7-5.41,7.21h0c-6.75,10.18-11.13,22.03-12.4,34.8-.16,.97-.32,1.94-.46,2.92-.14,1.58-.23,3.17-.28,4.74-.11,3.8,.06,7.54,.49,11.2-.19-1.4-.34-2.81-.46-4.22-1.72-21.42,5.49-41.53,18.51-56.65Z"/><path class="cls-2" d="M161.17,84.37c-.03-.52-.06-1.04-.1-1.56-.06-1.04-.15-2.09-.25-3.13-.45-10.95-3.18-21.33-7.75-30.65-.78-1.6-1.62-3.17-2.51-4.71,6.91,11.76,10.79,25.48,10.61,40.04Z"/><path class="cls-2" d="M161.08,82.82h-.19c0-1.05-.02-2.09-.06-3.13,.1,1.04,.19,2.08,.25,3.13Z"/><path class="cls-2" d="M85.21,68.28c-2.1-6.03-2.06-13.9-6.28-18.79-2.45-2.79-5.54-4.69-8.83-6.35l-1.58,2.01c-1.54,2.12-3.05,4.04-4.38,6.06-4.49,6.45-6.34,13.88-9.08,21.31-3.93-10.35-.96-23.8,8.33-30.18-.87-1.47-1.85-3.12-2.54-4.24l-.12-.17c-.04-.07-.04-.03-.06-.06l-3.66-8.84c10.54,5.44,25.29,9.97,28.75,22.82,1.35,5.48,1.32,11.13-.56,16.44Z"/><path class="cls-2" d="M133.23,96.43c-4.89,9.15-8.61,19.14-14.62,27.86l-1.2,1.81c-3.27-.48-6.6-.99-9.87-1.55-6.96-1.19-16.49-2.81-23.43-4.16,9.74-2.27,19.87-2.4,29.82-1.8,4.56-6.68,7.84-14.05,11.71-21.3l-4.96-5.62c-7.36-8.52-12.76-14.26-11.26-25.27-3.24-.93-6.47-1.94-9.66-3.04-4.31-1.61-8.77-2.91-12.42-5.89,4.64,.07,8.9,.98,13.44,1.42,5.28,.62,11.63,1.26,16.84,2.1-.78,3.68-2.07,8.55-1.42,11.86,1.06,5.35,5.87,10.2,9.38,14.61,.99,1.16,6.78,7.96,7.64,8.97Z"/><path class="cls-1" d="M78.97,118.04c-.25,.07-.53,.14-.83,.22-3.18,.87-9.08,2.47-11.01,2.99l6.65,1.25c-2.74,2.71-5.52,5.53-8.18,8.34-.66-4.38-1.61-10.62-1.92-12.63-1.93,2.13-13.98,15.39-23.46,25.83,1.55,1.13,3.13,2.19,4.76,3.18l16.12-19.83,1.38,7.86,.7,3.95c4.04-4.67,8.06-9.75,11.86-14.77l.97,5.48c.68-2.24,3.04-9.98,3.69-12.08-.19,.05-.43,.12-.71,.19Zm-2.81,4.91c.05-.07,.12-.15,.16-.22l.31,.31-.47-.09Z"/><path class="cls-1" d="M78.97,118.04c-.25,.07-.53,.14-.83,.22,.2-.14,.46-.24,.83-.22Z"/><path class="cls-1" d="M76.63,123.05l-.47-.09c.05-.07,.12-.15,.16-.22l.31,.31Z"/><polygon class="cls-2" points="94.68 76.95 104.96 86.22 104.56 78.56 94.68 76.95 94.68 76.95"/><g><path class="cls-2" d="M83.82,5.75c-23.09,0-43.84,10.22-57.97,26.36,.39-.45,.8-.89,1.21-1.32,.43-.46,.86-.9,1.29-1.34,.4-.43,.83-.86,1.26-1.27l.02-.02c.32-.31,.64-.61,.96-.91,.28-.27,.56-.53,.83-.78,.88-.81,1.77-1.6,2.68-2.35,.75-.63,1.51-1.23,2.28-1.82,1.62-1.27,3.28-2.46,5.01-3.59,.39-.26,.78-.52,1.17-.76,.09-.05,.19-.12,.27-.17,.35-.22,.7-.45,1.06-.66,.53-.32,1.08-.63,1.62-.95,.39-.22,.77-.45,1.17-.65,.9-.5,1.82-.98,2.74-1.44,2.31-1.16,4.69-2.2,7.12-3.11,.97-.38,1.96-.73,2.95-1.05,.49-.17,.99-.33,1.49-.48,1-.32,2.01-.6,3.02-.87,1.02-.28,2.05-.53,3.08-.75,1.04-.23,2.07-.44,3.12-.62,1.56-.29,3.15-.52,4.75-.7,.53-.06,1.07-.12,1.61-.16,3.04-.29,6.15-.39,9.3-.31,27.4,.74,51.14,15.71,64.31,37.63C136.75,20.99,112.03,5.75,83.82,5.75ZM9.84,108.05l-2.16,3.06-.61,.98,2.78-4s0-.02-.02-.04Zm-2.94-14.04c.22,1.91,.52,3.79,.88,5.65l.08-.09c-.39-1.84-.7-3.69-.96-5.56Z"/><path class="cls-2" d="M144.04,141.26c-.25,.27-.51,.54-.78,.8-.32,.34-.66,.68-1,1-.3,.3-.6,.6-.92,.88-.02,.02-.05,.04-.06,.06-.14,.14-.29,.28-.43,.42-.14,.12-.29,.26-.43,.39-.33,.32-.68,.63-1.02,.93-.05,.06-.11,.11-.16,.15-.23,.2-.46,.4-.7,.6-.31,.28-.63,.55-.95,.82-3.99,3.36-8.3,6.36-12.87,8.93-.46,.27-.93,.53-1.41,.78-.73,.4-1.47,.78-2.21,1.14-.42,.22-.86,.43-1.29,.63-.02,.02-.05,.03-.09,.05-.53,.26-1.07,.5-1.61,.75-.53,.25-1.06,.47-1.6,.7-.32,.13-.63,.26-.95,.39-.31,.13-.63,.27-.95,.39-.27,.12-.54,.22-.81,.32-.3,.12-.6,.25-.91,.35-.37,.15-.75,.29-1.13,.41-.21,.08-.42,.16-.64,.23-.34,.12-.69,.25-1.04,.36-.35,.12-.7,.23-1.04,.34-.23,.08-.47,.15-.7,.22-.45,.15-.9,.28-1.36,.41-.12,.04-.24,.07-.36,.1-.46,.14-.93,.26-1.4,.39-.24,.07-.49,.13-.73,.2-.45,.11-.9,.22-1.35,.32-.13,.04-.27,.07-.41,.1-.42,.1-.83,.19-1.25,.28-.31,.07-.63,.15-.95,.2-.43,.09-.87,.18-1.3,.25-.13,.03-.26,.05-.4,.08-.64,.12-1.28,.22-1.93,.32-.66,.12-1.34,.21-2.02,.3-.49,.06-1,.13-1.5,.18-.52,.07-1.04,.12-1.56,.16-.43,.05-.85,.08-1.27,.12-2.98,.25-5.98,.32-9.03,.25-14.02-.38-27.5-4.2-39.48-11.13-2.56-1.47-5.05-3.09-7.46-4.85l3.64-4.99c12.68,9.25,27.72,14.37,43.47,14.8,19.14,.51,36.87-6,50.71-17.19-1.03,.84-2.07,1.66-3.15,2.44,2.29-1.65,4.47-3.45,6.55-5.35,.27-.25,.55-.51,.83-.76,.4-.38,.81-.76,1.2-1.15,.05-.06,.12-.12,.17-.17,.26-.26,.53-.52,.77-.78,.28-.27,.56-.55,.81-.83,12.9-13.41,21.04-31.47,21.58-51.49,0-.32,.02-.64,.02-.96v-.16c.19-14.57-3.7-28.28-10.61-40.04-.12-.22-.26-.44-.39-.66C136.75,20.99,112.03,5.75,83.82,5.75c-23.09,0-43.84,10.22-57.97,26.36-.32,.34-.61,.69-.9,1.04C11.92,48.26,4.71,68.37,6.44,89.79c.12,1.41,.26,2.82,.46,4.22,.22,1.91,.52,3.79,.88,5.65l.08-.09,2.69-2.95c1.18-1.51,2.36-3,3.57-4.48,5.1-6.08,9.99-12.16,16.47-16.94-.94-2.07-1.38-4.3-1.39-6.62v-1.31c7.65-1.21,15.35-1.55,23.1-2.28-6.34,2.6-13.08,4.11-19.88,4.87,.41,1.74,1.17,3.45,2.28,4.81l1.17,1.5c-7.02,4.94-12.29,12.35-17.37,19.29-2.09,2.95-4.13,5.96-6.12,9l-2.53,3.58-2.16,3.06-.61,.98-.05,.07-1.28,1.85c-2.77-7.33-4.84-15.84-5.47-23.72-1.96-24.35,6.78-47.14,22.27-63.72,0,0,.02-.02,.03-.03,.39-.43,.79-.83,1.19-1.25,.09-.1,.19-.2,.29-.3,.32-.34,.66-.67,.99-.99,.13-.14,.27-.28,.41-.41,.29-.28,.57-.55,.86-.82,.29-.28,.6-.55,.89-.83,.03-.05,.07-.08,.1-.09,.42-.37,.83-.75,1.25-1.12,.42-.37,.85-.73,1.28-1.1C42.68,8.79,58.89,1.72,76.89,.27c45.95-3.69,86.32,30.68,90.01,76.62,1.99,24.67-7.01,47.73-22.87,64.37Z"/><path d="M102.63,144.36c-.09,.09-.18,.18-.28,.27-.05,.04-.1,.09-.15,.14,.15-.14,.29-.28,.43-.41Z"/></g></g></g></svg>