<?xml version="1.0" encoding="UTF-8"?><svg id="Laag_2" xmlns="http://www.w3.org/2000/svg" viewBox="0 0 391 219.94"><defs><style>.cls-1{fill:#fff;}.cls-2{fill:#ffe615;}.cls-3{fill:#00005c;}</style></defs><g id="Laag_2-2"><rect class="cls-3" width="391" height="219.94"/><g><g><path class="cls-1" d="M151.8,123.56v-54.16h19.65v36.7h16.57v17.46h-36.22Z"/><path class="cls-1" d="M182.49,69.39h22.25l4.63,9.91c.32,.73,.97,2.27,1.46,4.3h.57c.41-2.27,.97-3.09,1.46-4.3l4.22-9.91h22.17l-18.51,30.86v23.3h-19.41v-23.3l-18.84-30.86Z"/><path class="cls-1" d="M244.12,123.56v-54.16h18.76l12.59,20.46c2.03,3.25,3.33,5.36,5.12,9.58h.57c-.81-3.41-1.71-8.85-1.71-12.83v-17.22h18.84v54.16h-18.84l-13.48-21.36c-1.22-1.95-2.68-4.79-3.74-7.06h-.57c.57,2.92,1.22,7.55,1.22,9.99v18.43h-18.76Z"/><path class="cls-1" d="M305.59,69.39h22.25l4.47,8.53c.49,.97,.97,2.68,1.22,3.65h.41c.32-1.38,.73-2.52,1.3-3.65l4.14-8.53h22.25l-16.97,25.34,19.33,28.83h-22.41l-6.58-12.26c-.32-.57-.65-2.19-.73-2.6h-.57c-.24,.89-.73,2.27-1.14,3l-6.42,11.86h-22.41l18.92-28.83-17.05-25.34Z"/></g><g><path class="cls-1" d="M153.52,136.31v12.4h7.77v1.62h-9.49v-14.02h1.73Z"/><path class="cls-1" d="M168.02,150.54c-.92,0-1.78-.22-2.59-.67-.81-.45-1.46-1.09-1.95-1.93-.5-.84-.74-1.84-.74-2.99s.25-2.15,.74-2.99c.5-.84,1.15-1.49,1.95-1.95,.81-.46,1.67-.69,2.59-.69s1.78,.23,2.58,.69c.8,.46,1.44,1.11,1.93,1.95s.73,1.84,.73,2.99-.24,2.15-.73,2.99c-.49,.84-1.13,1.48-1.93,1.93-.8,.45-1.66,.67-2.58,.67Zm0-1.62c.6,0,1.17-.15,1.7-.45s.97-.75,1.31-1.35c.34-.6,.51-1.32,.51-2.17s-.17-1.57-.51-2.17c-.34-.6-.77-1.05-1.31-1.37-.53-.32-1.1-.47-1.7-.47s-1.18,.15-1.71,.46c-.54,.31-.98,.76-1.33,1.36-.34,.6-.52,1.33-.52,2.19s.17,1.57,.51,2.17c.34,.6,.78,1.05,1.33,1.35,.55,.3,1.12,.45,1.73,.45Z"/><path class="cls-1" d="M185.04,146.27c-.1,.89-.39,1.66-.85,2.3-.47,.64-1.05,1.13-1.76,1.47-.7,.34-1.47,.51-2.29,.51-.92,0-1.78-.22-2.59-.67-.81-.45-1.46-1.09-1.95-1.93-.5-.84-.74-1.84-.74-2.99s.25-2.15,.74-2.99c.5-.84,1.15-1.49,1.95-1.95,.81-.46,1.67-.69,2.59-.69,.82,0,1.58,.17,2.28,.52,.7,.34,1.28,.83,1.75,1.47,.47,.63,.76,1.39,.87,2.26h-1.58c-.24-.82-.67-1.46-1.27-1.93-.6-.47-1.29-.7-2.05-.7-.62,0-1.2,.16-1.75,.47-.55,.32-.99,.77-1.32,1.37-.33,.6-.5,1.32-.5,2.17s.17,1.55,.5,2.15c.33,.6,.77,1.05,1.3,1.36s1.12,.46,1.76,.46c.88,0,1.59-.23,2.15-.7,.55-.47,.95-1.12,1.2-1.95h1.55Z"/><path class="cls-1" d="M191.31,150.54c-.85,0-1.63-.24-2.34-.72-.71-.48-1.28-1.14-1.7-1.98-.42-.84-.64-1.8-.64-2.88s.22-2.04,.65-2.89c.43-.85,1.02-1.52,1.76-2.01,.74-.49,1.57-.73,2.49-.73,1.01,0,1.77,.26,2.3,.77,.52,.51,.88,1.19,1.08,2.04,.19,.85,.29,1.79,.29,2.83,0,.55-.06,1.14-.17,1.78-.12,.64-.31,1.25-.59,1.83s-.67,1.06-1.18,1.42c-.5,.37-1.15,.55-1.94,.55Zm.43-1.64c.73,0,1.34-.18,1.82-.54,.48-.36,.84-.84,1.07-1.43,.23-.6,.34-1.25,.34-1.97,0-.79-.12-1.48-.36-2.08-.24-.6-.6-1.06-1.08-1.4-.48-.34-1.08-.51-1.8-.51-1.08,0-1.91,.38-2.5,1.13-.59,.75-.88,1.71-.88,2.86,0,.76,.15,1.44,.44,2.04,.29,.6,.7,1.06,1.21,1.4,.51,.34,1.09,.51,1.74,.51Zm3.24-9.36h1.73v10.79h-1.57c-.04-.52-.08-.95-.11-1.29-.03-.35-.04-.63-.04-.86v-8.63Z"/><path class="cls-1" d="M199.73,135.23h1.73v15.1h-1.73v-15.1Z"/></g><g><path class="cls-1" d="M227.79,136.31v12.4h7.77v1.62h-9.49v-14.02h1.73Z"/><path class="cls-1" d="M240.17,135.23v2.09h-2.24v-2.09h2.24Zm-1.98,4.31h1.73v10.79h-1.73v-10.79Z"/><path class="cls-1" d="M242.86,139.54h1.73v10.79h-1.73v-10.79Zm5.44-.22c.58,0,1.09,.09,1.55,.26,.46,.17,.85,.42,1.16,.75,.32,.33,.56,.73,.73,1.2,.17,.47,.26,1,.26,1.59v7.2h-1.73v-6.77c0-.83-.19-1.46-.58-1.88s-.97-.63-1.75-.63c-.59,0-1.14,.15-1.64,.45-.5,.3-.92,.72-1.24,1.24-.32,.53-.52,1.13-.59,1.82l-.02-1.25c.07-.6,.22-1.15,.44-1.64,.22-.49,.5-.91,.84-1.26,.34-.35,.73-.62,1.17-.81,.44-.19,.9-.28,1.39-.28Z"/><path class="cls-1" d="M255.07,135.23h1.73v15.1h-1.73v-15.1Zm8.93,4.31l-5.39,5.33,.04-1.12,5.72,6.58h-2.2l-5.33-6.02,4.7-4.77h2.46Z"/><path class="cls-1" d="M273.19,146.85h1.62c-.12,.7-.37,1.33-.77,1.89-.4,.55-.91,.99-1.55,1.32s-1.38,.49-2.21,.49c-1.01,0-1.91-.24-2.72-.72-.81-.48-1.44-1.14-1.91-1.98-.47-.84-.7-1.8-.7-2.88s.23-2.04,.68-2.89c.45-.85,1.07-1.52,1.87-2.01,.79-.49,1.68-.73,2.67-.73,1.05,0,1.94,.23,2.66,.7,.73,.47,1.27,1.15,1.62,2.05,.35,.9,.49,2,.42,3.31h-8.2c.07,.7,.27,1.32,.58,1.85,.32,.53,.73,.95,1.25,1.24s1.11,.44,1.77,.44c.73,0,1.35-.19,1.87-.57,.51-.38,.86-.88,1.05-1.5Zm-2.96-5.91c-.89,0-1.64,.26-2.24,.78-.6,.52-1.01,1.22-1.21,2.11h6.32c-.06-.95-.36-1.67-.92-2.16-.55-.49-1.2-.73-1.95-.73Z"/><path class="cls-1" d="M281.17,150.54c-.86,0-1.65-.24-2.36-.72-.71-.48-1.28-1.14-1.69-1.98-.42-.84-.63-1.8-.63-2.88s.2-2.04,.6-2.89c.4-.85,.96-1.52,1.66-2.01,.7-.49,1.51-.73,2.42-.73,.81,0,1.46,.15,1.97,.44,.51,.29,.9,.7,1.18,1.22s.46,1.11,.57,1.79,.16,1.4,.16,2.18c0,.55-.06,1.14-.17,1.78-.12,.64-.31,1.25-.59,1.83s-.67,1.06-1.18,1.42c-.5,.37-1.15,.55-1.94,.55Zm.43-1.64c.73,0,1.34-.18,1.82-.54,.48-.36,.84-.84,1.07-1.43,.23-.6,.34-1.25,.34-1.97,0-.79-.12-1.48-.36-2.08-.24-.6-.6-1.06-1.08-1.4-.48-.34-1.08-.51-1.8-.51-1.08,0-1.91,.38-2.5,1.13-.59,.75-.88,1.71-.88,2.86,0,.76,.15,1.44,.44,2.04,.29,.6,.7,1.06,1.21,1.4,.51,.34,1.09,.51,1.74,.51Zm3.24-13.68h1.73v15.1h-1.57c-.03-.32-.06-.69-.1-1.12-.04-.43-.05-.78-.05-1.04v-12.94Z"/></g><g><path class="cls-1" d="M311.17,135.77h11.22v1.62h-11.22v-1.62Zm4.74,1.45h1.73v12.58h-1.73v-12.58Z"/><path class="cls-1" d="M326.25,150c-.85,0-1.63-.24-2.34-.72-.71-.48-1.28-1.14-1.7-1.98-.42-.84-.64-1.8-.64-2.88s.22-2.04,.65-2.89c.43-.85,1.02-1.52,1.76-2.01,.74-.49,1.57-.73,2.49-.73,1.01,0,1.77,.26,2.3,.77,.52,.51,.88,1.19,1.08,2.04,.19,.85,.29,1.79,.29,2.83,0,.55-.06,1.14-.17,1.78-.12,.64-.31,1.25-.59,1.83s-.67,1.06-1.18,1.42c-.5,.37-1.15,.55-1.94,.55Zm.43-1.64c.73,0,1.34-.18,1.82-.54,.48-.36,.84-.84,1.07-1.43,.23-.6,.34-1.25,.34-1.97,0-.79-.12-1.48-.36-2.08-.24-.6-.6-1.06-1.08-1.4-.48-.34-1.08-.51-1.8-.51-1.08,0-1.91,.38-2.5,1.13-.59,.75-.88,1.71-.88,2.86,0,.76,.15,1.44,.44,2.04,.29,.6,.7,1.06,1.21,1.4,.51,.34,1.09,.51,1.74,.51Zm3.24-9.36h1.73v10.79h-1.57c-.04-.52-.08-.95-.11-1.29-.03-.35-.04-.63-.04-.86v-8.63Z"/><path class="cls-1" d="M333.58,139h2.16l3.34,4.64,4.42,6.15h-2.09l-3.49-4.92-4.34-5.87Zm9.71,0l-4.18,5.87-3.43,4.92h-2.09l4.47-6.19,3.15-4.59h2.09Z"/><path class="cls-1" d="M352.76,146.31h1.62c-.12,.7-.37,1.33-.77,1.89-.4,.55-.91,.99-1.55,1.32s-1.38,.49-2.21,.49c-1.01,0-1.91-.24-2.72-.72-.81-.48-1.44-1.14-1.91-1.98-.47-.84-.7-1.8-.7-2.88s.23-2.04,.68-2.89c.45-.85,1.07-1.52,1.87-2.01,.79-.49,1.68-.73,2.67-.73,1.05,0,1.94,.23,2.66,.7,.73,.47,1.27,1.15,1.62,2.05,.35,.9,.49,2,.42,3.31h-8.2c.07,.7,.27,1.32,.58,1.85,.32,.53,.73,.95,1.25,1.24s1.11,.44,1.77,.44c.73,0,1.35-.19,1.87-.57,.51-.38,.86-.88,1.05-1.5Zm-2.96-5.91c-.89,0-1.64,.26-2.24,.78-.6,.52-1.01,1.22-1.21,2.11h6.32c-.06-.95-.36-1.67-.92-2.16-.55-.49-1.2-.73-1.95-.73Z"/><path class="cls-1" d="M356.14,146.31h1.6c.04,.62,.28,1.12,.7,1.51,.42,.39,1.04,.58,1.84,.58,.49,0,.87-.06,1.15-.19s.49-.31,.62-.53c.13-.22,.19-.47,.19-.74,0-.33-.08-.59-.25-.79-.17-.19-.39-.36-.67-.49s-.6-.25-.96-.37c-.42-.16-.84-.33-1.28-.51-.44-.18-.85-.4-1.23-.65-.38-.25-.69-.56-.92-.93-.23-.37-.35-.81-.35-1.33,0-.43,.09-.84,.26-1.22s.42-.71,.74-.99c.32-.28,.7-.5,1.14-.66s.92-.24,1.46-.24c.72,0,1.33,.14,1.82,.43,.5,.29,.88,.69,1.14,1.22,.27,.53,.41,1.13,.42,1.82h-1.49c-.1-.65-.31-1.12-.61-1.41-.31-.29-.75-.44-1.33-.44s-1.04,.13-1.36,.39c-.32,.26-.47,.6-.47,1.04,0,.32,.11,.58,.35,.79,.23,.21,.53,.4,.89,.56,.37,.17,.76,.33,1.18,.51,.42,.17,.82,.35,1.21,.52,.39,.17,.73,.37,1.04,.6,.3,.23,.54,.51,.72,.85s.27,.76,.27,1.26c0,.6-.14,1.14-.42,1.61-.28,.47-.69,.83-1.23,1.09s-1.2,.39-1.97,.39c-.7,0-1.3-.09-1.8-.27-.5-.18-.91-.42-1.24-.71-.33-.29-.59-.61-.77-.94s-.3-.65-.36-.97c-.06-.32-.07-.58-.04-.8Z"/></g><circle class="cls-1" cx="213.76" cy="144.34" r="1.89"/><circle class="cls-1" cx="298.87" cy="144.34" r="1.89"/></g><g><path class="cls-1" d="M126.14,107.62c-.63-6.5-2.19-12.86-4.77-18.89,2.82,5.74,4.5,12.14,4.77,18.89Z"/><path class="cls-1" d="M42.4,78.94c-1.2,1.41-2.31,2.9-3.33,4.44h0c-4.16,6.27-6.86,13.58-7.64,21.45-.1,.6-.2,1.2-.28,1.8-.09,.98-.14,1.95-.17,2.92-.07,2.34,.04,4.65,.3,6.9-.12-.86-.21-1.73-.28-2.6-1.06-13.2,3.38-25.59,11.41-34.91Z"/><path class="cls-1" d="M126.35,110.51c-.02-.32-.04-.64-.06-.96-.04-.64-.09-1.29-.15-1.93-.28-6.75-1.96-13.14-4.78-18.89-.48-.99-1-1.95-1.55-2.9,4.26,7.25,6.65,15.7,6.54,24.68Z"/><path class="cls-1" d="M126.29,109.55h-.12c0-.64-.01-1.29-.04-1.93,.06,.64,.12,1.28,.16,1.93Z"/><path class="cls-1" d="M79.53,100.59c-1.29-3.72-1.27-8.57-3.87-11.58-1.51-1.72-3.42-2.89-5.44-3.91l-.97,1.24c-.95,1.31-1.88,2.49-2.7,3.73-2.77,3.98-3.9,8.55-5.6,13.13-2.42-6.38-.59-14.67,5.13-18.6-.54-.91-1.14-1.93-1.56-2.61l-.07-.11s-.02-.02-.04-.04l-2.26-5.45c6.5,3.35,15.59,6.14,17.72,14.07,.83,3.38,.82,6.86-.34,10.13Z"/><path class="cls-1" d="M109.13,117.94c-3.01,5.64-5.3,11.79-9.01,17.17l-.74,1.12c-2.02-.3-4.07-.61-6.08-.95-4.29-.73-10.16-1.73-14.44-2.56,6-1.4,12.24-1.48,18.38-1.11,2.81-4.12,4.83-8.66,7.22-13.13l-3.06-3.46c-4.54-5.25-7.87-8.79-6.94-15.57-2-.57-3.98-1.2-5.95-1.88-2.65-.99-5.4-1.79-7.66-3.63,2.86,.04,5.48,.61,8.29,.87,3.25,.38,7.17,.78,10.38,1.3-.48,2.27-1.28,5.27-.88,7.31,.65,3.3,3.62,6.29,5.78,9,.61,.72,4.18,4.91,4.71,5.53Z"/><path class="cls-2" d="M75.69,131.26c-.15,.04-.32,.09-.51,.14-1.96,.53-5.6,1.52-6.79,1.84l4.1,.77c-1.69,1.67-3.4,3.41-5.04,5.14-.41-2.7-1-6.55-1.18-7.78-1.19,1.31-8.61,9.49-14.46,15.92,.95,.7,1.93,1.35,2.93,1.96l9.93-12.22,.85,4.84,.43,2.43c2.49-2.88,4.97-6.01,7.31-9.1l.6,3.38c.42-1.38,1.88-6.15,2.27-7.44-.12,.03-.27,.07-.44,.12Zm-1.73,3.03s.07-.09,.1-.13l.19,.19-.29-.06Z"/><path class="cls-1" d="M75.69,131.26c-.15,.04-.32,.09-.51,.14,.12-.09,.28-.15,.51-.14Z"/><path class="cls-1" d="M74.25,134.34l-.29-.06s.07-.09,.1-.13l.19,.19Z"/><polygon class="cls-1" points="85.37 105.93 91.71 111.65 91.46 106.93 85.37 105.93 85.37 105.93"/><g><path class="cls-1" d="M78.68,62.05c-14.23,0-27.02,6.3-35.73,16.24,.24-.28,.49-.55,.74-.81,.27-.28,.53-.56,.8-.83,.25-.27,.51-.53,.78-.79h.01c.2-.2,.4-.39,.59-.58,.17-.17,.34-.32,.51-.48,.54-.5,1.09-.99,1.65-1.45,.46-.39,.93-.76,1.4-1.12,1-.78,2.02-1.52,3.09-2.21,.24-.16,.48-.32,.72-.47,.06-.03,.11-.07,.17-.1,.21-.14,.43-.28,.65-.4,.33-.2,.67-.39,1-.59,.24-.14,.48-.28,.72-.4,.55-.31,1.12-.6,1.69-.89,1.42-.71,2.89-1.36,4.39-1.91,.6-.23,1.2-.45,1.82-.65,.3-.1,.61-.2,.92-.3,.61-.2,1.24-.37,1.86-.53,.63-.17,1.26-.32,1.9-.46,.64-.14,1.28-.27,1.92-.38,.96-.18,1.94-.32,2.93-.43,.33-.04,.66-.08,.99-.1,1.88-.18,3.79-.24,5.73-.19,16.89,.46,31.52,9.68,39.63,23.19-8.27-13.98-23.51-23.37-40.89-23.37Zm-45.59,63.05l-1.33,1.89-.38,.6,1.71-2.47s0-.01,0-.02Zm-1.81-8.65c.14,1.18,.32,2.33,.54,3.48l.05-.05c-.24-1.13-.43-2.28-.59-3.43Z"/><path class="cls-1" d="M115.79,145.57c-.15,.17-.31,.33-.48,.5-.2,.21-.41,.42-.62,.62-.19,.19-.37,.37-.57,.54-.01,.01-.03,.02-.04,.04-.09,.09-.18,.17-.27,.26-.09,.08-.18,.16-.26,.24-.2,.2-.42,.39-.63,.58-.03,.04-.07,.07-.1,.09-.14,.12-.29,.25-.43,.37-.19,.17-.39,.34-.59,.5-2.46,2.07-5.11,3.92-7.93,5.51-.28,.17-.57,.32-.87,.48-.45,.25-.9,.48-1.36,.7-.26,.14-.53,.27-.8,.39-.01,.01-.03,.02-.05,.03-.32,.16-.66,.31-.99,.46-.33,.15-.65,.29-.99,.43l-.59,.24c-.19,.08-.39,.17-.59,.24-.17,.07-.33,.14-.5,.2-.19,.08-.37,.15-.56,.21-.23,.09-.46,.18-.7,.25-.13,.05-.26,.1-.4,.14-.21,.08-.42,.15-.64,.22-.21,.07-.43,.14-.64,.21-.14,.05-.29,.1-.43,.13-.28,.09-.56,.17-.84,.25-.07,.02-.15,.04-.22,.06-.29,.09-.58,.16-.86,.24-.15,.04-.3,.08-.45,.12-.28,.07-.56,.14-.83,.2-.08,.02-.17,.04-.25,.06-.26,.06-.51,.11-.77,.17-.19,.04-.39,.09-.59,.12-.27,.06-.53,.11-.8,.16-.08,.02-.16,.03-.25,.05-.4,.07-.79,.14-1.19,.2-.41,.07-.82,.13-1.24,.19-.3,.04-.61,.08-.92,.11-.32,.04-.64,.07-.96,.1-.26,.03-.52,.05-.78,.07-1.83,.15-3.69,.2-5.57,.15-8.64-.23-16.95-2.59-24.33-6.86-1.58-.9-3.11-1.9-4.6-2.99l2.24-3.08c7.81,5.7,17.08,8.86,26.79,9.12,11.8,.31,22.73-3.7,31.25-10.59-.63,.52-1.28,1.02-1.94,1.5,1.41-1.02,2.76-2.12,4.04-3.3,.17-.16,.34-.31,.51-.47,.25-.23,.5-.47,.74-.71,.03-.04,.07-.07,.1-.1,.16-.16,.32-.32,.48-.48,.17-.17,.34-.34,.5-.51,7.95-8.27,12.97-19.4,13.3-31.74,0-.2,0-.4,.01-.59v-.1c.11-8.98-2.28-17.43-6.54-24.68-.08-.14-.16-.27-.24-.41-8.27-13.98-23.51-23.37-40.89-23.37-14.23,0-27.02,6.3-35.73,16.24-.2,.21-.38,.42-.56,.64-8.02,9.32-12.47,21.71-11.41,34.91,.07,.87,.16,1.74,.28,2.6,.14,1.18,.32,2.33,.54,3.48l.05-.05,1.66-1.82c.73-.93,1.45-1.85,2.2-2.76,3.14-3.75,6.16-7.49,10.15-10.44-.58-1.28-.85-2.65-.86-4.08v-.8c4.71-.75,9.46-.95,14.23-1.4-3.91,1.6-8.06,2.53-12.25,3,.25,1.07,.72,2.13,1.4,2.97l.72,.92c-4.32,3.04-7.58,7.61-10.71,11.89-1.29,1.82-2.54,3.67-3.77,5.55l-1.56,2.2-1.33,1.89-.38,.6-.03,.04-.79,1.14c-1.7-4.51-2.98-9.76-3.37-14.62-1.2-15.01,4.18-29.05,13.72-39.27,0,0,.01,0,.02-.02,.24-.26,.49-.51,.73-.77,.06-.06,.12-.12,.18-.19,.2-.21,.4-.41,.61-.61,.08-.09,.17-.17,.25-.25,.18-.17,.35-.34,.53-.5,.18-.17,.37-.34,.55-.51,.02-.03,.04-.05,.06-.06,.26-.23,.51-.46,.77-.69,.26-.23,.52-.45,.79-.68,7.92-6.68,17.91-11.04,29.01-11.93,28.32-2.27,53.2,18.91,55.48,47.22,1.22,15.2-4.32,29.42-14.1,39.67Z"/><path class="cls-1" d="M90.27,147.48c-.06,.06-.11,.11-.17,.17-.03,.02-.06,.05-.09,.09,.09-.09,.18-.17,.26-.25Z"/></g></g></g></svg>