<?xml version="1.0" encoding="UTF-8"?><svg id="Laag_2" xmlns="http://www.w3.org/2000/svg" viewBox="0 0 329.53 317.54"><defs><style>.cls-1{fill:#ffe615;}.cls-2{fill:#00005c;}</style></defs><g id="Laag_2-2"><path class="cls-2" d="M64.84,122.64l3.14,4.04c-18.84,13.25-33.02,33.16-46.64,51.83-5.63,7.92-11.11,16-16.46,24.17-2-6.88-3.63-13.92-4.88-21.09,3.15-4.03,6.33-8.05,9.57-12.04,13.71-16.33,26.85-32.64,44.25-45.49-2.52-5.56-3.71-11.58-3.74-17.79v-3.51c20.56-3.26,41.26-4.15,62.05-6.12-17.04,6.98-35.14,11.04-53.4,13.08,1.09,4.66,3.14,9.28,6.11,12.92Z"/><path class="cls-2" d="M200.53,105.46c-5.63-16.19-5.52-37.34-16.86-50.47-6.6-7.51-14.94-12.64-23.79-17.09l-4.16,5.42c-4.13,5.69-8.18,10.84-11.75,16.27-12.06,17.33-17.03,37.27-24.39,57.25-10.56-27.81-2.58-63.93,22.36-81.09-2.34-3.95-4.97-8.37-6.82-11.38l-.3-.47c-.12-.18-.11-.09-.16-.15L124.82,0c28.33,14.62,67.93,26.78,77.21,61.31,3.63,14.7,3.56,29.89-1.5,44.15Z"/><path class="cls-2" d="M329.53,181.08c-13.14,24.56-23.12,51.4-39.27,74.84l-3.21,4.86c-8.8-1.3-17.74-2.65-26.52-4.16-18.71-3.18-44.3-7.54-62.93-11.18,26.17-6.09,53.36-6.44,80.1-4.85,12.26-17.94,21.08-37.74,31.46-57.2l-13.33-15.11c-19.78-22.9-34.3-38.3-30.26-67.88-8.71-2.47-17.36-5.19-25.95-8.15-11.56-4.33-23.55-7.82-33.36-15.82,12.47,.19,23.9,2.64,36.12,3.8,14.18,1.66,31.23,3.38,45.23,5.64-2.09,9.89-5.56,22.97-3.81,31.86,2.84,14.38,15.76,27.41,25.2,39.25,2.65,3.11,18.21,21.39,20.53,24.1Z"/><path class="cls-1" d="M183.45,242.68c-.13,.16-.25,.33-.38,.49l-.71,.96-1.55,2.08s-.03,.05-.05,.07c-12.37,16.65-25.84,34.03-39.42,49.72l-1.86-10.62-3.69-21.09-43.29,53.25c-4.38-2.68-8.64-5.53-12.79-8.55,25.47-28.04,57.81-63.66,63-69.38,.82,5.36,3.37,22.13,5.16,33.9,9.65-10.2,19.98-20.52,29.78-30.07l.17-.17,2.06-2.01,.47-.47c.21-.21,.42-.43,.64-.63,.71-.65,1.56-1.18,3.21-1.02,.42,1.76-.11,2.7-.75,3.54Z"/><path class="cls-1" d="M159.9,239.89c6.25-1.7,27.87-7.58,33.73-9.17-1.72,5.65-8.07,26.44-9.9,32.45l-4.32-24.64,6.04,6.18-25.54-4.82h0Z"/><polygon class="cls-2" points="225.99 128.75 253.6 153.66 252.52 133.08 225.99 128.75 225.99 128.75"/></g></svg>